<?xml version="1.0" standalone="no"?>
<!DOCTYPE svg PUBLIC "-//W3C//DTD SVG 20010904//EN"
 "http://www.w3.org/TR/2001/REC-SVG-20010904/DTD/svg10.dtd">
<svg version="1.0" xmlns="http://www.w3.org/2000/svg"
 width="1500.000000pt" height="1500.000000pt" viewBox="0 0 1500.000000 1500.000000"
 preserveAspectRatio="xMidYMid meet">
<metadata>
Created by potrace 1.14, written by Peter Selinger 2001-2017
</metadata>
<g transform="translate(0.000000,1500.000000) scale(0.100000,-0.100000)"
fill="#000000" stroke="none">
<path d="M12005 11284 c-16 -9 -44 -31 -62 -50 -29 -31 -39 -34 -155 -54 -146
-24 -273 -57 -383 -98 -90 -34 -237 -102 -276 -129 -100 -69 -333 -314 -420
-443 -15 -22 -28 -38 -30 -37 -2 1 -3 0 -2 -2 2 -2 -8 -18 -21 -35 -13 -18
-25 -38 -27 -46 -2 -8 -41 -50 -86 -92 -73 -69 -85 -77 -114 -74 -48 6 -58 -2
-66 -47 -12 -77 -76 -101 -135 -52 -17 14 -49 35 -71 47 -39 19 -41 20 -54 2
-7 -10 -13 -27 -13 -38 -1 -12 -6 -31 -13 -44 -13 -22 -14 -21 -89 55 -157
161 -196 191 -212 165 -2 -4 -13 -48 -23 -97 -15 -76 -38 -125 -57 -125 -6 0
-106 138 -106 146 0 7 -89 125 -106 139 -6 6 -26 31 -44 58 -18 26 -40 47 -47
47 -8 0 -22 -18 -32 -40 -10 -22 -21 -37 -26 -32 -5 4 -5 1 -1 -6 4 -7 4 -21
1 -33 -6 -19 -8 -20 -26 -3 -10 9 -17 20 -14 23 2 4 -8 8 -22 9 -18 1 -34 -8
-54 -31 -16 -17 -29 -38 -29 -45 0 -17 -45 -33 -67 -25 -10 4 -42 31 -72 60
-30 29 -68 62 -85 74 -17 12 -48 44 -70 71 -21 27 -43 47 -50 45 -6 -2 -20
-45 -30 -95 -18 -88 -20 -91 -43 -86 -13 4 -29 1 -37 -5 -11 -9 -21 -3 -50 30
-19 23 -33 46 -29 52 3 6 1 7 -5 4 -9 -7 -92 82 -92 98 0 4 -15 24 -32 45 -72
81 -123 143 -133 159 -33 54 -88 120 -96 115 -6 -3 -9 -78 -7 -185 3 -190 -3
-217 -40 -191 -9 6 -35 21 -57 32 -22 11 -47 25 -56 32 -25 17 -49 3 -49 -30
0 -15 -6 -37 -14 -47 -13 -18 -17 -16 -87 36 -41 29 -89 71 -108 91 -49 54
-64 50 -81 -19 l-15 -58 -35 4 c-89 11 -93 10 -104 -39 -6 -25 -19 -60 -29
-78 -20 -37 -19 -38 -120 32 -34 24 -87 56 -117 71 -30 15 -57 30 -60 34 -12
15 -114 40 -121 30 -3 -6 0 -38 7 -72 19 -89 20 -86 -31 -73 -24 7 -47 15 -51
19 -13 12 -44 8 -44 -7 0 -18 45 -192 60 -230 6 -16 9 -31 6 -33 -9 -10 -214
28 -285 52 -40 14 -81 25 -90 25 -9 0 -22 5 -28 11 -23 23 -33 -3 -32 -82 2
-43 0 -81 -3 -84 -2 -3 -66 0 -141 7 -109 9 -139 9 -152 -2 -21 -17 -19 -29
14 -79 17 -25 27 -49 24 -54 -3 -6 -1 -7 5 -3 6 3 13 2 16 -3 13 -20 -81 -18
-228 5 l-49 7 7 -48 c9 -57 21 -86 58 -142 l28 -41 -49 -25 c-47 -25 -51 -25
-147 -16 -85 9 -269 11 -369 6 -28 -2 -30 -4 -29 -44 0 -29 12 -60 38 -103 20
-35 35 -64 33 -66 -2 -2 -32 -22 -67 -45 -93 -60 -161 -69 -520 -74 -408 -5
-461 -13 -372 -62 20 -11 62 -35 92 -51 67 -38 150 -119 129 -126 -8 -3 -41
-12 -73 -21 -33 -8 -64 -19 -69 -24 -5 -5 4 -26 22 -51 17 -24 31 -46 31 -50
0 -4 -35 1 -77 11 -80 18 -274 49 -312 49 -28 0 -27 -10 9 -50 17 -18 30 -40
30 -47 0 -12 -45 -19 -105 -15 -11 0 -54 -6 -95 -14 -153 -31 -162 -39 -110
-94 17 -18 40 -45 51 -61 l20 -28 -44 -25 c-24 -14 -58 -26 -74 -26 -18 0 -33
-6 -36 -14 -6 -15 26 -70 67 -116 35 -40 54 -74 57 -106 2 -16 11 -41 21 -56
26 -38 24 -62 -5 -54 -12 3 -42 9 -67 12 -25 2 -91 12 -148 21 -56 9 -105 13
-108 10 -9 -9 36 -146 58 -179 10 -14 18 -28 18 -31 0 -2 -26 -7 -57 -10 -54
-6 -93 1 -233 43 -45 13 -117 13 -125 0 -4 -6 -1 -18 7 -27 7 -9 13 -29 14
-45 1 -16 14 -46 28 -68 14 -22 22 -40 16 -40 -17 0 -145 59 -203 94 -21 13
-40 -9 -31 -36 12 -38 -3 -53 -53 -53 -43 0 -48 -2 -47 -22 0 -13 -1 -23 -3
-23 -2 0 -30 18 -62 40 -32 22 -61 40 -65 40 -4 0 -12 5 -19 10 -57 50 -173
103 -153 71 7 -11 -5 -131 -13 -131 -3 0 -41 34 -85 75 -43 41 -80 75 -82 75
-10 0 -54 45 -54 55 0 16 -45 39 -59 31 -6 -4 -11 -18 -11 -31 0 -25 -29 -95
-40 -95 -3 0 -23 30 -43 68 -69 122 -72 127 -100 130 -23 3 -32 -6 -72 -67
-41 -63 -89 -111 -112 -111 -4 0 -28 28 -53 62 -24 34 -49 66 -55 72 -5 6 -28
33 -50 60 -89 112 -125 134 -142 89 -4 -10 -25 -42 -47 -70 -35 -45 -42 -50
-50 -35 -5 9 -14 22 -20 29 -92 98 -109 113 -132 113 -16 0 -45 17 -77 45 -58
50 -78 55 -99 23 l-14 -21 -51 27 c-65 36 -102 32 -124 -11 l-16 -32 -50 52
c-59 62 -98 97 -134 120 -24 16 -26 16 -47 -6 -11 -12 -28 -39 -36 -59 -23
-55 -73 -66 -111 -25 -11 12 -41 38 -66 57 -29 22 -45 40 -42 50 3 9 2 11 -4
4 -4 -6 -16 -13 -26 -17 -10 -4 -26 -25 -36 -47 -21 -47 -54 -75 -99 -83 -28
-6 -48 2 -129 49 -95 54 -126 63 -129 34 -1 -8 -8 -48 -14 -88 -11 -64 -15
-73 -37 -78 -17 -5 -41 1 -70 15 -75 36 -103 25 -103 -45 0 -32 -4 -43 -18
-46 -10 -3 -23 1 -30 9 -7 7 -22 13 -32 13 -16 0 -20 -7 -20 -38 0 -30 -7 -45
-32 -69 -18 -17 -45 -37 -59 -44 -14 -8 -60 -39 -102 -69 l-76 -55 0 -66 -1
-66 56 9 c31 5 95 23 143 40 490 175 805 117 1256 -231 44 -34 116 -94 160
-134 98 -89 149 -134 245 -217 41 -36 88 -77 105 -92 32 -28 265 -225 350
-294 28 -23 86 -65 130 -93 44 -29 89 -61 100 -70 11 -10 56 -37 100 -61 44
-24 103 -55 130 -70 78 -43 322 -150 400 -175 188 -62 525 -148 685 -176 36
-6 107 -14 158 -19 51 -5 96 -11 101 -14 4 -3 77 -13 162 -22 113 -13 254 -17
533 -19 356 -1 379 -2 388 -20 22 -38 -8 -301 -45 -399 -7 -20 -39 -47 -106
-91 -53 -35 -132 -98 -176 -142 -85 -84 -89 -90 -166 -312 -26 -74 -132 -236
-194 -298 -39 -38 -57 -25 -151 110 -42 59 -44 57 -69 -93 -11 -61 -15 -136
-13 -210 1 -65 -3 -145 -10 -183 -13 -69 -10 -149 8 -297 42 -329 45 -371 45
-650 -1 -355 -22 -493 -120 -794 -50 -152 -55 -208 -26 -271 22 -49 46 -71 88
-80 18 -3 59 -24 93 -46 33 -21 65 -39 71 -39 5 0 19 15 30 34 20 34 20 34
117 41 142 11 365 1 437 -20 46 -14 82 -16 161 -12 55 2 110 10 122 16 16 9
30 7 68 -9 78 -34 103 -11 98 87 -2 36 2 53 11 57 8 3 81 10 162 17 l148 11
115 -42 c162 -58 150 -56 150 -27 0 57 -115 308 -139 304 -9 -1 -26 18 -40 45
-15 26 -60 82 -101 125 -41 43 -74 81 -72 86 1 4 -1 6 -5 5 -13 -3 -144 22
-203 39 -139 40 -280 240 -280 396 0 55 -56 254 -78 280 -11 12 -18 50 -22
130 l-6 112 35 67 c20 36 40 64 45 61 5 -4 6 -2 3 4 -6 10 187 213 203 213 5
0 33 23 62 51 29 29 65 57 80 63 15 7 44 27 65 46 39 36 265 153 317 165 17 3
75 28 131 54 56 26 114 51 129 55 117 29 237 187 275 361 7 33 26 98 42 145
16 47 38 128 49 180 58 291 72 354 100 445 18 55 34 110 37 122 10 43 22 44
174 22 122 -17 153 -19 203 -9 141 28 234 70 311 143 42 39 130 97 148 97 70
0 258 -92 374 -182 80 -63 163 -187 165 -246 1 -27 -28 -93 -62 -142 -9 -14
-31 -65 -49 -115 -38 -105 -49 -245 -31 -385 19 -143 23 -302 11 -386 -20
-137 -28 -175 -37 -184 -6 -6 -50 4 -119 29 -157 56 -155 56 -155 34 2 -66
155 -363 187 -363 15 0 107 -112 188 -228 l60 -87 6 -280 c5 -268 7 -284 32
-360 35 -106 92 -240 102 -240 10 0 18 25 45 148 12 53 25 97 29 97 11 0 95
-183 119 -260 11 -36 33 -128 47 -205 36 -188 44 -214 83 -257 50 -56 104 -68
318 -70 99 -1 284 1 413 4 224 6 236 6 275 -14 48 -25 126 -47 144 -41 6 3 12
11 12 19 0 10 13 14 46 14 31 0 69 11 121 35 91 42 149 45 293 15 52 -11 101
-20 108 -20 48 0 -54 170 -189 314 -31 34 -57 64 -58 69 0 4 -4 7 -7 6 -3 -1
-18 10 -32 24 -15 13 -47 37 -72 53 -25 16 -55 41 -67 55 -12 14 -40 34 -63
44 -39 18 -45 18 -103 3 -63 -16 -127 -14 -127 4 0 6 -7 8 -15 4 -32 -12 -141
46 -128 68 3 6 3 8 -2 4 -16 -15 -192 147 -300 277 -47 58 -155 230 -155 249
0 8 -6 19 -14 25 -18 15 -49 117 -40 132 4 7 3 9 -4 5 -12 -7 -41 82 -66 204
-19 93 -24 317 -8 430 12 90 49 248 62 265 4 6 11 26 15 45 12 62 28 109 34
105 4 -2 7 4 8 13 1 21 51 162 62 176 5 6 21 40 37 76 39 89 114 220 126 220
5 0 7 4 3 9 -3 5 1 15 8 23 7 7 14 16 15 21 11 51 171 264 188 249 4 -4 4 -1
0 6 -5 8 9 36 36 72 24 32 51 72 60 89 l17 31 101 0 c187 0 343 50 448 143 86
77 199 213 231 279 24 50 33 85 41 168 6 58 15 135 20 172 18 123 16 131 -70
199 -40 32 -303 179 -320 179 -4 0 -15 8 -24 19 -16 17 -15 20 9 50 15 17 31
28 36 25 5 -3 8 -1 7 5 -4 14 128 148 176 179 47 29 79 31 416 19 243 -8 361
0 515 35 50 11 104 27 120 36 17 8 44 19 60 23 103 26 143 42 227 91 51 30
107 60 123 67 34 14 168 96 293 179 119 78 127 80 214 57 105 -27 260 -93 356
-150 45 -28 178 -113 295 -190 117 -77 252 -160 300 -184 81 -41 93 -44 184
-49 117 -5 154 7 267 86 93 64 104 91 71 167 -12 28 -30 55 -41 60 -18 10 -26
47 -12 61 7 6 0 64 -8 73 -2 2 -13 -4 -24 -14 -27 -24 -34 -15 -22 29 12 42 0
56 -27 32 -16 -15 -19 -15 -31 -1 -15 18 0 62 37 105 l23 28 -27 34 c-15 18
-30 35 -33 38 -27 26 -30 38 -15 66 16 32 20 64 7 64 -5 0 -19 -11 -32 -24
-17 -19 -25 -22 -34 -13 -34 36 -70 95 -116 187 -28 57 -55 109 -61 116 -5 6
-7 20 -3 30 4 12 3 14 -3 7 -5 -7 -22 6 -53 42 -25 29 -57 60 -73 70 -15 9
-25 21 -21 26 3 5 2 9 -3 8 -28 -5 -33 4 -33 59 0 75 24 245 50 357 25 106 98
287 113 278 5 -3 7 -1 3 5 -12 20 103 189 119 174 5 -4 5 -2 2 4 -4 7 12 28
37 48 30 24 46 32 49 23 3 -6 5 3 4 21 0 18 3 35 6 39 4 3 7 -7 7 -23 l1 -29
17 35 c21 44 57 55 50 16 -8 -40 12 -43 43 -6 18 21 33 31 43 27 13 -5 15 -21
11 -102 -4 -66 -2 -95 5 -90 14 9 50 80 50 100 0 9 4 14 10 10 5 -3 16 8 25
25 26 50 38 37 31 -32 -4 -35 -8 -72 -9 -82 -3 -33 19 -28 38 8 14 25 22 32
28 23 6 -8 7 -6 3 6 -8 26 3 45 37 62 63 31 63 33 40 -119 -9 -60 16 -42 58
42 20 40 39 75 42 78 3 3 29 3 56 -1 51 -7 51 -7 51 -43 0 -21 -7 -72 -15
-115 -18 -95 -18 -87 -1 -87 22 0 74 86 98 164 25 77 31 86 66 86 21 0 22 -4
22 -65 0 -37 4 -65 10 -65 6 0 20 21 33 48 12 26 25 48 29 50 4 2 5 9 2 16 -7
18 30 61 44 52 7 -4 12 -24 12 -45 0 -62 25 -46 62 38 32 76 54 104 72 94 5
-4 6 -1 3 4 -9 14 21 38 46 38 14 0 23 9 28 27 10 37 59 99 72 91 6 -3 7 -1 3
6 -5 7 4 27 19 47 36 47 76 148 80 203 3 30 -3 67 -17 106 -28 78 -120 254
-159 304 -10 13 -16 28 -12 34 3 5 1 7 -5 3 -5 -3 -20 10 -32 29 -12 20 -27
41 -33 48 -7 7 -32 35 -57 62 -58 65 -131 124 -202 164 -32 18 -58 37 -58 43
0 5 -4 7 -9 4 -8 -5 -106 31 -176 65 -87 41 -176 62 -288 66 -157 7 -167 5
-592 -126 -33 -10 -114 -24 -180 -31 -104 -11 -132 -11 -205 3 -105 19 -184
40 -230 60 -115 50 -309 117 -338 117 -15 -1 -40 -8 -57 -16z m-2591 -4179
c41 -27 185 -84 239 -94 29 -5 90 -15 137 -21 47 -7 114 -18 150 -24 l65 -12
-2 -43 c-1 -27 -15 -65 -37 -105 -31 -55 -42 -66 -87 -85 -28 -11 -60 -21 -70
-21 -11 0 -27 -9 -36 -20 -30 -35 -164 -80 -237 -80 -75 0 -74 -3 -80 113 -4
73 -4 73 -95 168 -43 45 -58 71 -82 138 -30 86 -30 86 21 94 54 9 92 6 114 -8z
m181 -601 c33 -7 75 -14 93 -14 17 0 32 -4 32 -10 0 -5 -4 -10 -9 -10 -4 0
-37 -26 -72 -59 -58 -53 -115 -91 -136 -91 -4 0 -8 47 -8 106 0 101 1 105 20
99 11 -4 47 -13 80 -21z"/>
<path d="M1260 8710 c0 -5 5 -10 10 -10 6 0 10 5 10 10 0 6 -4 10 -10 10 -5 0
-10 -4 -10 -10z"/>
</g>
</svg>
